<?xml version="1.0" encoding="UTF-8" standalone="no"?>
<!-- Created with Inkscape (http://www.inkscape.org/) -->

<svg
   xmlns:dc="http://purl.org/dc/elements/1.1/"
   xmlns:cc="http://creativecommons.org/ns#"
   xmlns:rdf="http://www.w3.org/1999/02/22-rdf-syntax-ns#"
   xmlns:svg="http://www.w3.org/2000/svg"
   xmlns="http://www.w3.org/2000/svg"
   xmlns:sodipodi="http://sodipodi.sourceforge.net/DTD/sodipodi-0.dtd"
   xmlns:inkscape="http://www.inkscape.org/namespaces/inkscape"
   width="211.94626mm"
   height="78.874161mm"
   viewBox="0 0 750.99065 279.47537"
   id="svg2"
   version="1.1"
   inkscape:version="0.91 r"
   sodipodi:docname="routify.svg">
  <defs
     id="defs4" />
  <sodipodi:namedview
     id="base"
     pagecolor="#ffffff"
     bordercolor="#666666"
     borderopacity="1.0"
     inkscape:pageopacity="0.0"
     inkscape:pageshadow="2"
     inkscape:zoom="0.50765775"
     inkscape:cx="84.875691"
     inkscape:cy="138.98077"
     inkscape:document-units="px"
     inkscape:current-layer="flowRoot3417"
     showgrid="false"
     fit-margin-top="10"
     fit-margin-right="10"
     fit-margin-bottom="10"
     fit-margin-left="10"
     inkscape:window-width="1920"
     inkscape:window-height="1056"
     inkscape:window-x="0"
     inkscape:window-y="24"
     inkscape:window-maximized="1" />
  <metadata
     id="metadata7">
    <rdf:RDF>
      <cc:Work
         rdf:about="">
        <dc:format>image/svg+xml</dc:format>
        <dc:type
           rdf:resource="http://purl.org/dc/dcmitype/StillImage" />
        <dc:title></dc:title>
      </cc:Work>
    </rdf:RDF>
  </metadata>
  <g
     inkscape:label="Layer 1"
     inkscape:groupmode="layer"
     id="layer1"
     transform="translate(-8.0064438,-252.6972)">
    <g
       id="g3425">
      <g
         style="fill:#c87137"
         transform="matrix(2.3407026,0,0,2.3407026,-332.87305,-388.80814)"
         id="g3401">
        <path
           inkscape:connector-curvature="0"
           id="path3415"
           d="m 177.35067,378.13754 c -0.10341,-0.10343 -0.008,-0.54217 0.21233,-0.97501 0.22021,-0.43283 0.46827,-1.86696 0.55126,-3.18696 0.0918,-1.45937 0.38696,-2.9291 0.7532,-3.75 0.33126,-0.7425 0.66864,-1.99052 0.74974,-2.77338 l 0.14744,-1.42338 -1.08796,0.61411 c -3.07394,1.7351 -5.73797,4.39435 -5.73797,5.72766 0,0.30525 -0.15266,0.55499 -0.33925,0.55499 -0.56913,0 -0.0605,-2.06257 0.78054,-3.16524 0.42347,-0.55521 2.32478,-2.38315 4.22512,-4.0621 4.13121,-3.64992 4.95823,-4.8974 5.16529,-7.79135 0.12763,-1.78374 -0.32766,-4.78131 -0.72621,-4.78131 -0.0641,0 -0.7656,0.33939 -1.5589,0.75419 -2.32331,1.21483 -2.92037,2.05757 -4.04031,5.70284 -1.03892,3.38154 -1.75834,5.05432 -2.32411,5.40399 -0.57269,0.35394 -0.63801,-0.0828 -0.15273,-1.02127 0.52723,-1.01954 1.23485,-3.94254 1.47687,-6.10058 0.15757,-1.40502 0.15511,-1.40965 -0.59674,-1.1238 -1.10928,0.42175 -3.11036,1.87171 -4.30957,3.12265 -1.41272,1.47367 -1.42323,2.97245 -0.0361,5.14987 0.71642,1.12462 0.95368,1.80988 0.88291,2.55 -0.0532,0.55666 -0.22956,0.94461 -0.39185,0.86211 -0.1623,-0.0825 -0.2565,-0.3778 -0.20933,-0.65622 0.0988,-0.58294 -0.89856,-2.6653 -1.52584,-3.18589 -0.34357,-0.28514 -0.83187,0.0686 -2.57192,1.8631 -1.8573,1.91544 -2.14783,2.36142 -2.14783,3.29704 0,0.59508 -0.135,1.08197 -0.3,1.08197 -0.4662,0 -0.35337,-1.72362 0.18262,-2.7899 0.26544,-0.52805 1.0103,-1.50761 1.65524,-2.17679 0.87621,-0.90914 1.35392,-1.80433 1.88989,-3.54149 l 0.71728,-2.32481 -0.79751,0.52534 c -3.15359,2.07732 -6.52916,3.12728 -7.09752,2.20765 -0.11052,-0.17883 0.25185,-0.3 0.89719,-0.3 1.56122,0 4.58577,-1.73455 8.10281,-4.64687 0.825,-0.68315 2.3775,-1.86187 3.45,-2.61939 2.66042,-1.87907 4.02414,-3.36728 4.95631,-5.40874 l 0.78767,-1.725 5.8136,0 5.8136,0 0.899,1.275 c 0.49445,0.70125 2.15469,2.57291 3.68941,4.15924 l 2.79041,2.88423 2.25,0.20394 c 1.2375,0.11216 2.69101,0.28096 3.23002,0.37509 1.10506,0.193 2.76998,1.59245 2.76998,2.32832 0,0.3355 -0.31609,0.15961 -1.02499,-0.57036 -1.01674,-1.04696 -1.04588,-1.05546 -3.62043,-1.05546 l -2.59544,0 0.58936,0.825 c 2.54788,3.56664 4.61976,4.98577 7.30514,5.00366 1.34003,0.009 1.63633,0.0924 1.38826,0.39134 -0.17345,0.209 -0.81634,0.38 -1.42863,0.38 -0.6123,0 -1.18856,0.0753 -1.28058,0.16731 -0.092,0.092 0.3112,1.11192 0.89604,2.26645 0.80079,1.58081 1.32978,2.23997 2.14231,2.66944 0.92987,0.49148 0.98296,0.57211 0.38424,0.58354 -1.17232,0.0224 -1.82695,-0.53602 -3.25844,-2.77941 -0.75711,-1.18653 -1.5479,-2.25789 -1.75731,-2.38079 -0.20941,-0.1229 -1.11917,-0.82498 -2.0217,-1.56017 l -1.64096,-1.33671 -0.32055,1.59615 c -0.36194,1.80225 -0.22546,2.65061 0.62204,3.86646 0.74424,1.06773 0.38368,1.50159 -0.41822,0.50325 -1.18125,-1.47064 -1.53007,-2.69519 -1.32178,-4.64019 0.11053,-1.03213 0.0634,-2.17474 -0.10841,-2.62655 -0.16722,-0.43983 -1.26516,-1.8115 -2.43986,-3.04816 -1.54289,-1.62426 -2.52507,-2.39029 -3.53795,-2.75934 -0.77118,-0.28099 -1.97589,-0.75313 -2.67714,-1.04921 l -1.275,-0.53833 0.006,2.30813 0.006,2.30813 1.81555,2.78077 c 1.4014,2.14645 2.19829,3.03609 3.4934,3.9 1.82078,1.21458 2.6175,2.15884 2.90603,3.44423 0.26726,1.19064 -0.18864,0.99981 -0.80386,-0.33648 -0.37641,-0.8176 -0.9567,-1.37954 -2.025,-1.96098 l -1.49739,-0.81499 0,0.71643 c 0,0.39403 0.35048,1.71871 0.77884,2.94372 0.79898,2.28491 0.84781,4.17453 0.12633,4.88863 -0.25599,0.25336 -0.29598,-0.0392 -0.15877,-1.16133 0.16181,-1.32337 0.058,-1.74526 -0.8815,-3.5828 -0.61165,-1.19631 -1.0649,-2.52335 -1.0649,-3.11786 0,-0.85341 -0.27583,-1.30393 -1.5718,-2.5672 l -1.57179,-1.53214 -0.17134,1.8 c -0.11208,1.17744 -0.44916,2.26692 -0.97459,3.15 -0.44179,0.7425 -0.80488,1.78875 -0.80687,2.325 -0.002,0.53625 -0.13861,0.975 -0.30361,0.975 -0.49589,0 -0.32577,-2.16423 0.27392,-3.4848 0.90684,-1.99691 1.00302,-2.9503 0.49692,-4.92579 -0.25896,-1.01083 -0.47084,-2.1565 -0.47084,-2.54593 0,-0.38944 -0.12157,-0.7832 -0.27015,-0.87503 -0.30614,-0.18921 -4.38397,7.01526 -5.05429,8.92961 -0.61148,1.74634 -0.34868,5.39048 0.51014,7.07392 0.35715,0.70006 0.59664,1.43099 0.53221,1.62428 -0.14165,0.42495 -1.42935,-1.58375 -2.08058,-3.24551 l -0.46998,-1.19926 -0.48368,1.62871 c -0.26602,0.89578 -0.48367,2.08103 -0.48367,2.63389 0,0.90387 -0.69627,3.08591 -0.98469,3.08591 -0.0634,0 -0.19993,-0.0846 -0.30335,-0.18803 z"
           style="fill:#c87137" />
        <path
           inkscape:connector-curvature="0"
           id="path3413"
           d="m 177.6007,377.50057 c 0.1244,-0.28875 0.39454,-1.875 0.6003,-3.525 0.20577,-1.65 0.57576,-3.405 0.8222,-3.9 0.52096,-1.04636 0.9545,-4.05 0.58458,-4.05 -0.471,0 -3.06178,1.78092 -4.44329,3.05436 -0.75747,0.6982 -1.70965,1.88285 -2.11596,2.63255 l -0.73876,1.36309 0.17048,-1.04255 c 0.25278,-1.54586 1.48656,-3.12071 4.34823,-5.55025 3.18875,-2.70724 5.02942,-4.69052 5.58311,-6.01568 0.78245,-1.87267 0.39943,-7.34152 -0.51418,-7.34152 -0.54857,0 -2.55898,1.16612 -3.45758,2.00554 -0.70224,0.65599 -1.19004,1.71841 -2.1372,4.65481 -1.20166,3.72543 -1.95928,5.33965 -2.50613,5.33965 -0.15026,0 -0.0843,-0.37125 0.14648,-0.825 0.88998,-1.74951 2.048,-7.875 1.48876,-7.875 -0.73942,0 -4.25002,2.45749 -5.11803,3.58272 -1.29233,1.67528 -1.27589,2.78824 0.0742,5.02726 1.0489,1.73947 1.3157,2.89088 0.75077,3.24002 -0.17354,0.10726 -0.3,-0.17974 -0.3,-0.68086 0,-0.47645 -0.4105,-1.48601 -0.91222,-2.24347 l -0.91221,-1.37719 -2.19618,2.18197 c -1.6735,1.66267 -2.25494,2.46014 -2.44307,3.35076 -0.18532,0.87738 -0.27533,1.00329 -0.36099,0.505 -0.16182,-0.94123 0.68657,-2.56772 2.24134,-4.29699 0.86276,-0.9596 1.47106,-1.99307 1.71471,-2.9132 0.20769,-0.78431 0.47365,-1.72649 0.59102,-2.09373 0.19154,-0.5993 -0.0807,-0.51479 -2.6572,0.825 -2.67546,1.39124 -4.41453,1.841 -4.78717,1.23807 -0.0865,-0.14005 0.24959,-0.26621 0.747,-0.28035 0.4974,-0.0141 1.4715,-0.30163 2.16467,-0.63886 1.25099,-0.60862 2.15256,-1.23508 6.69727,-4.65363 1.29967,-0.97761 3.06083,-2.30183 3.91369,-2.9427 1.62962,-1.22456 3.45454,-3.6089 4.02193,-5.25482 l 0.3361,-0.975 5.74566,0.0144 5.74565,0.0144 1.24744,1.65613 c 0.6861,0.91088 2.33393,2.78231 3.66185,4.15874 l 2.41441,2.50259 2.33815,0.2028 c 3.13969,0.27232 4.35947,0.61334 5.08806,1.42249 1.02753,1.14115 1.1481,1.62972 0.17998,0.72933 -1.12832,-1.04939 -2.51813,-1.3832 -4.74166,-1.13889 l -1.71035,0.18793 1.70664,2.1794 c 1.97552,2.52277 3.36459,3.36394 5.94081,3.59755 1.97497,0.17908 1.78668,0.66084 -0.26126,0.66846 l -1.23592,0.005 1.18018,2.25225 c 0.81244,1.55046 1.46331,2.39867 2.08881,2.72213 0.49974,0.25842 0.82324,0.55524 0.71889,0.65958 -0.49192,0.49193 -2.26472,-1.00565 -3.31362,-2.7992 -0.80879,-1.38296 -1.68407,-2.33959 -3.18392,-3.47984 -1.13767,-0.8649 -2.08056,-1.71483 -2.09532,-1.88873 -0.0479,-0.5644 -0.86145,2.66053 -0.86626,3.43381 -0.003,0.4125 0.2721,1.20398 0.61038,1.75883 0.70641,1.1587 0.62635,1.51813 -0.14766,0.66287 -0.90961,-1.00512 -1.33659,-2.73248 -1.15886,-4.68826 0.20771,-2.28565 -0.11006,-2.9294 -2.80548,-5.68344 -1.80727,-1.84658 -2.36214,-2.21552 -4.59803,-3.05726 -1.39851,-0.52649 -2.61351,-0.88652 -2.7,-0.80006 -0.0865,0.0865 -0.15726,1.12472 -0.15726,2.30725 0,2.13426 0.014,2.17148 1.90085,5.06102 1.6016,2.45269 2.15797,3.05606 3.53409,3.8327 1.54343,0.87105 2.81146,2.34717 2.81394,3.27571 6e-4,0.23066 -0.30263,-0.0293 -0.67388,-0.57765 -0.37125,-0.54836 -1.2825,-1.31859 -2.025,-1.71163 l -1.35,-0.71461 -0.096,0.77782 c -0.0528,0.42781 0.20189,1.67282 0.56591,2.7667 0.70498,2.11847 0.85906,4.13099 0.35486,4.63519 -0.20933,0.20933 -0.25933,-0.11592 -0.15716,-1.02236 0.12367,-1.09723 -0.0394,-1.72282 -0.93391,-3.58257 -0.59606,-1.23927 -1.08375,-2.68656 -1.08375,-3.21621 0,-0.76248 -0.3165,-1.27127 -1.52,-2.44352 -0.836,-0.81428 -1.61322,-1.48052 -1.72716,-1.48052 -0.11394,0 -0.1585,0.61184 -0.099,1.35965 0.0863,1.08455 -0.10554,1.79777 -0.94793,3.525 -0.58084,1.19094 -1.11912,2.43535 -1.19618,2.76535 -0.112,0.47966 -0.14708,0.44594 -0.1749,-0.16812 -0.0191,-0.42246 0.3027,-1.62931 0.7152,-2.68188 0.4125,-1.05257 0.75,-2.27661 0.75,-2.72008 0,-0.7262 -0.73951,-4.57751 -1.08765,-5.6644 -0.14548,-0.45419 -2.59504,3.56507 -4.5197,7.41595 -0.96216,1.9251 -1.08864,2.4385 -1.0762,4.36855 0.0104,1.61681 0.21085,2.67419 0.76868,4.05525 0.98324,2.43424 0.16594,1.86351 -1.00995,-0.70527 l -0.82396,-1.8 -0.34156,0.88646 c -0.18785,0.48756 -0.45431,1.78455 -0.59214,2.8822 -0.23409,1.86426 -0.71352,3.28134 -1.11017,3.28134 -0.0944,0 -0.0698,-0.23625 0.0546,-0.525 z"
           style="fill:#c87137" />
        <path
           inkscape:connector-curvature="0"
           id="path3411"
           d="m 177.73783,377.12722 c 0.17612,-0.3291 0.42959,-1.78035 0.56325,-3.225 0.13366,-1.44466 0.45289,-3.03179 0.70941,-3.52696 0.5666,-1.09377 1.02269,-4.34969 0.6093,-4.34969 -0.53343,0 -3.82111,2.29047 -4.98835,3.47529 -0.6365,0.64609 -1.36455,1.64721 -1.61789,2.22471 -0.25333,0.5775 -0.51803,0.88734 -0.58822,0.68852 -0.26083,-0.73887 0.9138,-2.48324 3.01745,-4.481 1.19161,-1.13164 3.0827,-2.90565 4.20242,-3.94224 2.52326,-2.33595 3.24645,-3.82483 3.24645,-6.68367 0,-2.13348 -0.48399,-4.18161 -0.98816,-4.18161 -0.49368,0 -2.54074,1.13436 -3.49294,1.93559 -0.73279,0.6166 -1.14583,1.51084 -2.13773,4.62822 -0.67619,2.12518 -1.50917,4.18396 -1.85105,4.57507 -0.34189,0.39112 -0.5535,0.50862 -0.47024,0.26112 0.87801,-2.61018 2.109,-8.05982 1.87648,-8.30725 -0.14315,-0.15233 -2.58073,1.13826 -3.68339,1.95018 -1.74406,1.28419 -2.85925,2.8439 -2.89335,4.04662 -0.0182,0.64235 0.31478,1.56357 0.92173,2.54998 1.07723,1.75072 1.50443,3.06047 0.99823,3.06047 -0.18289,0 -0.33252,-0.3109 -0.33252,-0.6909 0,-0.37999 -0.41375,-1.25351 -0.91944,-1.94115 l -0.91945,-1.25025 -2.07264,2.01615 c -1.28623,1.25116 -2.23838,2.47147 -2.50942,3.21615 -0.24023,0.66 -0.44629,1.02691 -0.45791,0.81536 -0.0442,-0.80324 0.89298,-2.50861 2.32235,-4.22618 1.06611,-1.28105 1.58873,-2.23266 1.85936,-3.38555 0.20704,-0.88199 0.51371,-1.86858 0.68149,-2.19242 0.29695,-0.57317 0.28384,-0.57489 -0.49424,-0.0651 -2.1877,1.43344 -5.39641,2.90133 -6.27935,2.87263 -0.9011,-0.0293 -0.87364,-0.0579 0.44216,-0.4612 1.53745,-0.4712 3.90892,-1.98733 8.84932,-5.65757 4.17048,-3.09826 5.86302,-4.80206 6.99197,-7.0385 l 0.91444,-1.8115 5.631,0 5.63099,0 0.49451,0.83713 c 0.54993,0.93096 6.06562,6.98424 6.68585,7.33749 0.21691,0.12355 1.61025,0.35042 3.0963,0.50416 2.65436,0.27462 4.0951,0.75836 4.80451,1.61314 0.20046,0.24154 -0.27137,0.10923 -1.07185,-0.30058 -1.25365,-0.64181 -1.67037,-0.70742 -3.37995,-0.53212 -1.0725,0.10998 -2.00222,0.25011 -2.06603,0.3114 -0.24962,0.23975 3.29882,4.30071 4.29695,4.91759 0.58567,0.36196 1.80696,0.7313 2.7349,0.82707 1.74351,0.17995 1.71768,0.67137 -0.0358,0.68013 l -0.91993,0.005 0.98686,2.07188 c 0.54277,1.13953 1.34619,2.35453 1.78538,2.7 0.4392,0.34546 0.66354,0.62812 0.49854,0.62812 -0.64291,0 -1.93489,-1.32645 -2.6321,-2.70233 -0.4147,-0.81837 -1.35201,-1.93498 -2.16506,-2.57923 -0.78857,-0.62485 -1.85427,-1.52342 -2.36822,-1.99682 l -0.93446,-0.86074 -0.34054,1.35241 c -0.48504,1.92626 -0.42501,2.88799 0.26004,4.16615 0.77173,1.43988 0.53836,1.44036 -0.43977,9.3e-4 -0.66159,-0.97363 -0.76081,-1.44059 -0.76081,-3.58048 0,-1.35346 -0.12318,-2.77337 -0.27373,-3.15536 -0.15055,-0.38199 -1.15908,-1.65694 -2.24116,-2.83322 -1.79994,-1.95662 -2.2033,-2.23055 -4.73802,-3.21779 -2.07442,-0.80795 -2.8293,-0.98668 -3.00425,-0.71131 -0.12851,0.20229 -0.23572,1.18162 -0.23825,2.17629 -0.004,1.70149 0.10502,1.98277 1.84785,4.75348 1.59306,2.5326 2.11387,3.11008 3.71941,4.12407 1.20923,0.76369 2.03629,1.5359 2.34756,2.19186 0.68336,1.44007 0.59465,1.63015 -0.20602,0.44145 -0.73708,-1.09428 -3.0084,-2.53146 -3.51041,-2.2212 -0.34596,0.21382 -0.19891,1.0444 0.62463,3.52803 0.31482,0.94941 0.55555,2.29941 0.53496,3 l -0.0374,1.27381 -0.22937,-1.5 c -0.12615,-0.825 -0.6492,-2.3775 -1.16233,-3.45 -0.51314,-1.0725 -0.93308,-2.30304 -0.93321,-2.73454 -2.8e-4,-0.91704 -0.76479,-1.97016 -2.3304,-3.21014 l -1.11984,-0.88694 -0.0174,1.84081 c -0.0131,1.37993 -0.1929,2.12829 -0.71834,2.98903 -0.38551,0.63153 -0.878,1.64403 -1.09443,2.25 -0.21642,0.60598 -0.39942,0.86861 -0.40666,0.58363 -0.007,-0.28498 0.32433,-1.41481 0.73683,-2.51072 0.4125,-1.09591 0.75,-2.43243 0.75,-2.97005 0,-0.8595 -0.70438,-4.63888 -1.08754,-5.83528 -0.18851,-0.58858 -4.80209,7.82573 -5.4009,9.85021 -0.55156,1.86478 -0.39658,3.77744 0.49654,6.12794 0.31771,0.83616 0.52876,1.56918 0.469,1.62895 -0.18047,0.18047 -1.31573,-1.81441 -1.53695,-2.70073 -0.11364,-0.45531 -0.32949,-0.90378 -0.47967,-0.9966 -0.40002,-0.24722 -1.16021,1.77388 -1.16215,3.08979 -0.002,1.43481 -0.53383,3.38464 -0.92299,3.38464 -0.18732,0 -0.17857,-0.22026 0.0238,-0.59835 z"
           style="fill:#c87137" />
        <path
           inkscape:connector-curvature="0"
           id="path3409"
           d="m 177.98606,376.62332 c 0.12802,-0.62789 0.20346,-0.70333 0.29088,-0.29088 0.0649,0.30627 -0.0129,0.68776 -0.17284,0.84774 -0.18784,0.18784 -0.22966,-0.009 -0.11804,-0.55686 z m 0.48563,-3.24775 c 0.0592,-1.19731 0.32369,-2.52592 0.61531,-3.09086 0.28132,-0.54498 0.58554,-1.80754 0.67605,-2.80569 l 0.16456,-1.81483 -0.88204,0.45612 c -1.83113,0.94691 -4.5951,3.27287 -5.4841,4.61501 -0.50752,0.76622 -0.92276,1.22827 -0.92276,1.02679 0,-1.12689 1.86539,-3.19489 6.3157,-7.00169 1.08114,-0.92481 2.32946,-2.20637 2.77405,-2.84791 1.09388,-1.57847 1.5499,-4.15807 1.14322,-6.46687 -0.45904,-2.60596 -0.63809,-2.72208 -2.57763,-1.67158 -2.09496,1.13469 -2.99557,2.23105 -3.59219,4.37302 -0.82555,2.96389 -1.99349,6.0302 -2.43709,6.39836 -0.34813,0.28892 -0.33965,0.11541 0.0468,-0.95854 0.55178,-1.53328 1.70278,-7.18566 1.50375,-7.38469 -0.2598,-0.2598 -3.28572,1.58025 -4.72227,2.87159 -0.91801,0.82522 -1.56991,1.7178 -1.78922,2.44977 -0.32306,1.07828 -0.27392,1.27866 0.77227,3.14942 0.6145,1.09884 1.03747,2.07769 0.93993,2.17523 -0.0975,0.0975 -0.17735,0.0401 -0.17735,-0.12764 0,-0.16774 -0.41795,-0.88195 -0.92878,-1.58713 l -0.92878,-1.28214 -1.80487,1.76213 c -0.99267,0.96917 -2.05922,2.16713 -2.3701,2.66213 -0.31087,0.495 -0.56573,0.75121 -0.56635,0.56936 -0.001,-0.38334 0.88869,-1.6521 2.44229,-3.4817 0.66943,-0.78837 1.26339,-1.92745 1.53178,-2.93766 0.24111,-0.9075 0.55008,-1.9131 0.68659,-2.23468 0.20696,-0.4875 -0.0476,-0.41517 -1.53178,0.43525 -2.85894,1.63815 -3.81456,2.07543 -4.93,2.2559 -0.9633,0.15585 -0.93391,0.12224 0.35602,-0.4071 1.96481,-0.80628 3.15174,-1.56526 7.44398,-4.76005 5.60663,-4.17312 6.66693,-5.18722 7.92326,-7.57802 l 1.10946,-2.1113 5.49351,0 5.4935,0 1.01514,1.29897 c 0.55832,0.71443 2.24116,2.61248 3.73965,4.21787 l 2.72452,2.9189 2.90045,0.27441 c 2.93022,0.27722 4.24053,0.71485 5.02236,1.67741 0.28263,0.34797 0.10739,0.29239 -0.51563,-0.16355 -1.07388,-0.78589 -3.0314,-1.09333 -5.04184,-0.79185 l -1.37333,0.20595 1.1133,1.40594 c 2.82923,3.57293 4.21611,4.51962 6.69565,4.57045 1.03333,0.0212 1.20925,0.0882 0.75,0.2855 -0.33,0.14181 -0.97319,0.26732 -1.42932,0.27891 l -0.82932,0.0211 0.93604,1.875 c 0.51482,1.03125 1.29301,2.27288 1.72932,2.75917 l 0.79328,0.88417 -0.75,-0.46397 c -0.4125,-0.25519 -1.2364,-1.26056 -1.8309,-2.23417 -0.68808,-1.12688 -1.90958,-2.45125 -3.36116,-3.64424 l -2.28027,-1.87404 -0.31216,1.12404 c -0.40828,1.47014 -0.39974,3.24875 0.0195,4.06876 0.32266,0.63105 0.3145,0.63563 -0.22061,0.12396 -0.44621,-0.42667 -0.58606,-1.13842 -0.71004,-3.61349 -0.17121,-3.41785 -0.38618,-3.84765 -3.35471,-6.70713 -1.24307,-1.19741 -6.59907,-3.84867 -6.98842,-3.45932 -0.0887,0.0887 -0.16126,1.10939 -0.16126,2.26823 0,1.93809 0.1009,2.27672 1.25896,4.225 1.76257,2.96529 2.8542,4.30955 3.9484,4.86215 1.14591,0.57872 2.23981,1.5479 2.65907,2.35588 0.24504,0.47224 0.12739,0.43163 -0.55255,-0.19075 -0.8958,-0.81997 -2.55038,-1.75925 -3.09898,-1.75925 -0.47325,0 -0.38216,0.91058 0.2851,2.85 0.33,0.95916 0.59363,1.89155 0.58585,2.07197 -0.0314,0.72716 -1.76376,-3.06305 -1.95678,-4.28117 -0.21498,-1.35672 -1.2777,-2.83613 -2.83269,-3.94337 l -0.83349,-0.5935 0.014,1.72303 c 0.0111,1.35841 -0.18299,2.10396 -0.91702,3.52304 -1.0601,2.04948 -1.27343,1.82566 -0.33372,-0.35013 0.48738,-1.12848 0.59317,-1.84887 0.47723,-3.24987 -0.16945,-2.04778 -0.86229,-5.55124 -1.09706,-5.54753 -0.18467,0.003 -0.88539,1.23982 -3.56763,6.29753 l -1.98873,3.75 0.0311,2.4 c 0.0181,1.3956 0.23224,2.93359 0.51169,3.675 0.71344,1.89277 0.29211,1.54357 -0.655,-0.54288 l -0.8252,-1.81787 -0.39174,0.84287 c -0.21545,0.46359 -0.50423,1.51788 -0.64172,2.34288 -0.23228,1.39375 -0.24264,1.35125 -0.14616,-0.6 z m 15.21439,-2.55 c 0,-0.4125 0.0681,-0.58125 0.15131,-0.375 0.0832,0.20625 0.0832,0.54375 0,0.75 -0.0832,0.20625 -0.15131,0.0375 -0.15131,-0.375 z m -7.82369,-2.275 c 0.0144,-0.34948 0.0855,-0.42057 0.18125,-0.18125 0.0867,0.21656 0.076,0.47531 -0.0237,0.575 -0.0997,0.0997 -0.17059,-0.0775 -0.15757,-0.39375 z"
           style="fill:#c87137" />
        <path
           inkscape:connector-curvature="0"
           id="path3407"
           d="m 178.374,373.59153 c -0.0211,-0.76566 0.26749,-2.00341 0.71471,-3.06596 0.46865,-1.11346 0.75,-2.35522 0.75,-3.31016 l 0,-1.52823 -1.22796,0.69015 c -2.05711,1.15616 -4.57635,3.35147 -5.28812,4.60815 -0.37073,0.65455 -0.67627,0.98378 -0.67899,0.73162 -0.01,-0.89536 1.46052,-2.58269 4.97968,-5.71526 1.96096,-1.74555 3.96225,-3.8143 4.4473,-4.59722 0.79306,-1.28006 0.88374,-1.68575 0.9,-4.02627 0.0165,-2.37271 -0.46056,-4.55792 -0.99331,-4.54996 -0.47744,0.007 -3.27084,1.82557 -3.98176,2.59204 -0.49266,0.53117 -1.10011,1.87804 -1.60339,3.55514 -0.85149,2.83746 -1.95711,5.64634 -2.14752,5.45593 -0.0618,-0.0618 0.0725,-0.63965 0.2984,-1.28413 0.51103,-1.45794 1.48986,-6.72761 1.28726,-6.93021 -0.20959,-0.20959 -3.47236,1.58415 -4.46485,2.4546 -1.15033,1.00889 -2.32674,2.81648 -2.32674,3.57512 0,0.35067 0.27511,1.17558 0.61135,1.83313 0.58113,1.13647 0.58246,1.1622 0.0269,0.52056 -0.32144,-0.37125 -0.64595,-0.675 -0.72113,-0.675 -0.0752,0 -1.04877,0.91125 -2.16354,2.025 -1.11477,1.11375 -1.88645,1.755 -1.71484,1.425 0.1716,-0.33 0.79863,-1.06819 1.39341,-1.64042 0.79112,-0.76115 1.2471,-1.59683 1.69872,-3.11327 0.33953,-1.14006 0.69447,-2.2739 0.78877,-2.51963 0.10068,-0.26237 -1.00395,0.18685 -2.67607,1.08826 -1.56614,0.84429 -3.03064,1.53506 -3.25445,1.53506 -0.22382,0 0.26082,-0.3338 1.07697,-0.74179 0.81614,-0.40798 2.9014,-1.82977 4.6339,-3.15952 1.7325,-1.32976 3.825,-2.86896 4.65,-3.42044 2.12997,-1.4238 4.27061,-3.82407 5.11675,-5.73735 l 0.72568,-1.6409 5.53937,0 5.53938,0 0.88489,1.275 c 0.48669,0.70125 2.16317,2.6081 3.72552,4.23745 l 2.84063,2.96244 2.78315,0.25681 c 1.53073,0.14125 2.85323,0.3269 2.93889,0.41256 0.0857,0.0857 -0.71051,0.16523 -1.76926,0.17683 -3.12866,0.0343 -3.18608,0.13177 -1.38502,2.35197 2.28273,2.81396 3.48213,3.68351 5.32499,3.86059 1.51165,0.14525 1.55758,0.65156 0.06,0.66176 -0.37125,0.003 -0.675,0.0421 -0.675,0.0879 0,0.0458 0.54278,1.14465 1.20619,2.44187 1.3612,2.66169 0.9499,2.63839 -0.55667,-0.0315 -0.67757,-1.20077 -1.54716,-2.16394 -2.79305,-3.09363 -0.99504,-0.7425 -1.98246,-1.59151 -2.19426,-1.8867 -0.34482,-0.48058 -0.42049,-0.39611 -0.72365,0.80785 -0.42249,1.67785 -0.43385,3.34025 -0.028,4.09857 0.17082,0.31916 0.24179,0.58028 0.15772,0.58028 -0.55308,0 -1.06826,-2.0255 -1.06826,-4.2 0,-2.95519 -0.22826,-3.4322 -2.90279,-6.06614 -1.55445,-1.53086 -2.45066,-2.15475 -3.72336,-2.59203 -0.92188,-0.31675 -2.08602,-0.78785 -2.58696,-1.0469 -0.50095,-0.25905 -0.99544,-0.38638 -1.09886,-0.28297 -0.10341,0.10342 -0.18803,1.19412 -0.18803,2.42377 0,2.20271 0.0251,2.27537 1.70163,4.91994 0.93589,1.47632 2.04964,2.94925 2.475,3.27318 0.42535,0.32394 1.37027,1.02371 2.09982,1.55506 0.72954,0.53135 1.38778,1.16859 1.46275,1.41609 0.0774,0.25562 -0.15752,0.14415 -0.54393,-0.25806 -0.64876,-0.67529 -2.32684,-1.54194 -2.98563,-1.54194 -0.45897,0 -0.37836,0.92575 0.2589,2.97327 0.3127,1.0047 0.52509,1.82673 0.47199,1.82673 -0.24941,0 -1.59932,-3.36822 -1.78108,-4.44406 -0.16172,-0.95722 -0.56226,-1.54716 -1.90709,-2.80883 l -1.70236,-1.59711 -0.15746,2.1 c -0.11314,1.50897 -0.35432,2.39552 -0.85692,3.15 -0.3847,0.5775 -0.60331,0.78 -0.48581,0.45 1.18334,-3.32319 1.1572,-2.97473 0.45654,-6.08483 -0.9029,-4.00777 -0.848,-3.9043 -1.4521,-2.7369 -0.29079,0.56195 -1.36294,2.51211 -2.38255,4.33369 -2.96539,5.29781 -3.32224,7.01568 -2.20383,10.60916 0.65965,2.11946 0.32679,2.19504 -0.44383,0.10078 -0.28777,-0.78205 -0.62339,-1.53764 -0.74583,-1.67911 -0.31956,-0.36919 -0.89984,0.85207 -1.17302,2.46871 l -0.23462,1.3885 -0.0353,-1.28404 z"
           style="fill:#c87137" />
        <path
           inkscape:connector-curvature="0"
           id="path3405"
           d="m 178.4923,372.84961 c 0.0744,-0.78428 0.39301,-1.93178 0.70811,-2.55 0.74937,-1.47024 0.98239,-4.46467 0.33706,-4.33129 -1.01524,0.20984 -3.74308,2.10757 -5.12339,3.56429 -0.81145,0.85637 -1.47537,1.44241 -1.47537,1.3023 0,-0.35448 2.62921,-2.99865 5.93424,-5.968 3.1668,-2.84517 3.98093,-4.1696 4.19389,-6.82269 0.14663,-1.82666 -0.34457,-4.76979 -0.84799,-5.08092 -0.31209,-0.19289 -2.46178,0.85476 -3.77836,1.84138 -0.99615,0.74649 -1.37513,1.58732 -2.6236,5.82089 -0.41359,1.4025 -0.95338,2.82 -1.19953,3.15 -0.40103,0.53762 -0.40531,0.47524 -0.0412,-0.6 0.54991,-1.62389 1.47352,-6.73903 1.25609,-6.95646 -0.3424,-0.3424 -3.62839,1.58002 -5.02775,2.94143 -1.81882,1.76948 -2.1569,3.13444 -1.21523,4.90645 l 0.64226,1.20858 -0.67703,-0.81792 -0.67704,-0.81792 -0.81124,1.0167 c -0.44619,0.55919 -1.25366,1.3204 -1.79438,1.69159 l -0.98313,0.67489 1.08953,-1.17367 c 1.31617,-1.41781 1.5729,-1.91219 2.05097,-3.94959 0.20338,-0.86676 0.49122,-1.65098 0.63964,-1.74271 0.14842,-0.0917 0.26986,-0.30535 0.26986,-0.47472 0,-0.16937 -0.64125,0.061 -1.425,0.51183 -3.57182,2.05481 -4.44504,2.52065 -4.725,2.52065 -0.165,0 0.41784,-0.39573 1.2952,-0.8794 0.87736,-0.48367 2.88201,-1.86497 4.45477,-3.06957 1.57276,-1.20459 3.83051,-2.88299 5.01721,-3.72979 2.40064,-1.71301 3.35132,-2.81726 4.57695,-5.31627 l 0.83086,-1.6941 5.44764,0 5.44764,0 0.74595,1.125 c 1.1306,1.70509 5.9382,6.77628 6.81294,7.18647 0.42396,0.19881 1.37834,0.37534 2.12084,0.39229 0.7425,0.017 1.89,0.14251 2.55,0.27903 1.02986,0.21302 0.8491,0.2531 -1.275,0.28271 -1.36125,0.019 -2.475,0.15153 -2.475,0.29456 0,0.14303 0.72955,1.17552 1.62123,2.29443 1.77224,2.22386 3.7311,3.72257 4.94891,3.78636 0.70636,0.037 0.71624,0.0531 0.10486,0.17087 -0.78398,0.151 -0.82852,0.315 -0.26197,0.96466 0.41659,0.47769 1.74273,3.32362 1.54874,3.32362 -0.0575,0 -0.51828,-0.7332 -1.02403,-1.62932 -0.59043,-1.0462 -1.43279,-1.97992 -2.35364,-2.60891 -0.78875,-0.53877 -1.79741,-1.36386 -2.24145,-1.83352 l -0.80736,-0.85392 -0.31597,1.13783 c -0.17379,0.62581 -0.3188,1.34034 -0.32224,1.58784 -0.003,0.2475 -0.14829,0.6525 -0.32187,0.9 -0.22703,0.32371 -0.26227,-0.10767 -0.12558,-1.53718 0.24897,-2.60363 -0.13748,-3.46895 -2.73464,-6.12318 -1.85553,-1.8963 -2.35331,-2.22165 -4.90747,-3.20752 -1.56337,-0.60344 -2.86609,-1.07127 -2.89495,-1.03964 -0.0785,0.0861 -0.19255,3.24071 -0.14979,4.14401 0.0205,0.43257 0.91617,2.13315 1.99044,3.77907 1.60493,2.45896 2.21322,3.1341 3.41134,3.7862 0.80197,0.43649 1.62098,0.98983 1.82001,1.22965 0.19904,0.23982 -0.39136,0.0281 -1.31198,-0.47056 -1.51079,-0.81828 -1.69327,-0.85603 -1.87307,-0.38747 -0.17498,0.45597 0.0143,1.50996 0.64213,3.57662 0.10025,0.33 -0.15415,-0.075 -0.56534,-0.9 -0.4112,-0.825 -0.82973,-2.01705 -0.93007,-2.649 -0.13793,-0.86872 -0.55993,-1.50905 -1.72993,-2.625 -0.85112,-0.8118 -1.68673,-1.47618 -1.8569,-1.47641 -0.18672,-2.5e-4 -0.26949,0.63974 -0.20874,1.61393 0.0761,1.22005 -0.0552,1.89791 -0.53756,2.77541 -0.35102,0.63859 -0.57385,0.95857 -0.49516,0.71107 0.0787,-0.2475 0.30523,-0.94632 0.50343,-1.55293 0.30707,-0.9398 0.25448,-1.59424 -0.35551,-4.42468 -0.39373,-1.82696 -0.78337,-3.31764 -0.86587,-3.31262 -0.2519,0.0153 -4.53702,8.03594 -5.1372,9.61551 -0.66361,1.74646 -0.71775,3.74661 -0.15967,5.89808 0.48947,1.88694 0.12601,1.8284 -0.43452,-0.07 -0.21978,-0.74436 -0.50038,-1.35338 -0.62355,-1.35338 -0.32812,0 -0.92149,1.1953 -1.1914,2.4 -0.19793,0.88342 -0.21381,0.82377 -0.10007,-0.37596 z m 20.87009,-6.99904 c 0.0144,-0.34948 0.0855,-0.42057 0.18125,-0.18125 0.0867,0.21656 0.076,0.47531 -0.0237,0.575 -0.0997,0.0997 -0.17059,-0.0775 -0.15756,-0.39375 z"
           style="fill:#c87137" />
        <path
           inkscape:connector-curvature="0"
           id="path3403"
           d="m 178.65773,372.08862 c -0.0105,-0.21282 0.24158,-0.89778 0.5601,-1.52212 0.79105,-1.55059 1.16906,-4.84093 0.55614,-4.84093 -0.49838,0 -3.95244,2.16148 -4.26675,2.67005 -0.11216,0.18147 -0.34052,0.32995 -0.50747,0.32995 -0.16696,0 0.68476,-0.83922 1.8927,-1.86494 3.41047,-2.89599 5.25162,-4.91719 5.80927,-6.37738 0.68142,-1.78427 0.51538,-6.50786 -0.25586,-7.2791 -0.47653,-0.47653 -0.60918,-0.45329 -2.18047,0.38201 -2.51409,1.3365 -3.19906,2.28609 -4.17838,5.79266 -0.46769,1.67459 -0.8895,3.00555 -0.93736,2.9577 -0.0479,-0.0479 0.13114,-1.39887 0.39776,-3.00225 0.26661,-1.60339 0.39246,-3.00754 0.27965,-3.12035 -0.32544,-0.32544 -3.34927,1.28756 -4.69799,2.50605 -1.63255,1.47491 -2.19504,2.61416 -2.00185,4.05449 0.0849,0.63319 0.0381,1.07935 -0.10411,0.99147 -0.14219,-0.0879 -0.75281,0.35084 -1.35692,0.97493 -0.98259,1.01507 -1.01558,1.02948 -0.31294,0.13669 0.432,-0.54891 0.78987,-1.22391 0.79525,-1.5 0.005,-0.27609 0.26558,-1.24304 0.57821,-2.14877 0.31262,-0.90574 0.52773,-1.68748 0.47801,-1.7372 -0.0497,-0.0497 -0.61366,0.2069 -1.2532,0.57025 -1.71842,0.9763 -0.68163,0.0556 3.03719,-2.69704 5.25238,-3.8878 6.22721,-4.84404 7.36325,-7.22276 l 1.01078,-2.11646 5.41298,0.0144 5.41299,0.0144 1.13375,1.56061 c 0.62356,0.85833 2.32806,2.80935 3.78777,4.3356 2.59882,2.71729 2.68287,2.775 4.04125,2.775 0.76297,0 1.38723,0.135 1.38723,0.3 0,0.165 -0.405,0.3 -0.9,0.3 -0.54353,0 -0.9,0.15619 -0.9,0.39433 0,0.21689 0.82929,1.37954 1.84287,2.58367 1.30016,1.54459 2.27799,2.39092 3.32038,2.87387 0.81264,0.3765 1.31793,0.73774 1.12288,0.80275 -0.24314,0.0811 -0.15558,0.44476 0.27849,1.1568 0.34823,0.57122 0.63314,1.17358 0.63314,1.33858 0,0.165 -0.25675,-0.12105 -0.57055,-0.63567 -0.3138,-0.51461 -1.36568,-1.5475 -2.3375,-2.2953 -0.97182,-0.7478 -1.9461,-1.5755 -2.16507,-1.83933 -0.64204,-0.77362 -0.85582,-0.5707 -1.0746,1.01996 -0.25934,1.88568 -0.6363,2.19846 -0.49389,0.4098 0.19348,-2.42998 -0.12937,-3.17344 -2.47103,-5.69029 -2.07134,-2.22631 -2.38029,-2.43829 -5.12342,-3.51545 -1.60553,-0.63045 -2.98827,-1.07715 -3.07274,-0.99268 -0.0845,0.0845 -0.1728,1.21394 -0.19628,2.50991 l -0.0427,2.35631 2.02761,3.0566 c 1.54915,2.33533 2.31016,3.20075 3.225,3.66747 1.47277,0.75135 1.57174,1.02447 0.15703,0.43336 -0.57221,-0.23908 -1.09776,-0.43469 -1.16791,-0.43469 -0.32516,0 -0.42239,0.92731 -0.20042,1.91148 0.1345,0.59636 0.12921,1.01301 -0.0118,0.92588 -0.14097,-0.0871 -0.33925,-0.65992 -0.44062,-1.27288 -0.32414,-1.95997 -0.78613,-2.75841 -2.38773,-4.1267 -0.86124,-0.73578 -1.63978,-1.33778 -1.7301,-1.33778 -0.0903,0 -0.11768,0.84375 -0.0608,1.875 0.10311,1.87025 0.10275,1.8712 -0.14422,0.375 -0.47211,-2.86006 -1.35398,-6.45 -1.58445,-6.45 -0.12738,0 -0.23161,0.14702 -0.23161,0.32671 0,0.17969 -0.95956,2.00637 -2.13235,4.0593 -2.73569,4.78869 -3.26648,6.20676 -3.27224,8.74221 -0.003,1.26894 -0.10211,1.86783 -0.26646,1.60835 -0.31951,-0.50444 -0.88049,-0.1995 -1.23096,0.66913 -0.14298,0.35436 -0.26852,0.47017 -0.27897,0.25735 z m -4.81902,-2.31305 c 0.38752,-0.4125 0.77209,-0.75 0.85459,-0.75 0.0825,0 -0.16707,0.3375 -0.55459,0.75 -0.38752,0.4125 -0.77209,0.75 -0.85459,0.75 -0.0825,0 0.16707,-0.3375 0.55459,-0.75 z"
           style="fill:#c87137" />
      </g>
      <g
         transform="translate(-53.150769,14.009331)"
         style="font-style:normal;font-weight:normal;font-size:40px;line-height:125%;font-family:sans-serif;letter-spacing:0px;word-spacing:0px;fill:#c87137;fill-opacity:1;stroke:none;stroke-width:1px;stroke-linecap:butt;stroke-linejoin:miter;stroke-opacity:1"
         id="flowRoot3417">
        <path
           d="m 166.49023,340.39048 8.78907,0 q 12.91992,0 19.07226,-4.30664 6.15235,-4.30665 6.15235,-13.53516 0,-9.14063 -6.32813,-13.00781 -6.24023,-3.86719 -19.42383,-3.86719 l -8.26172,0 0,34.7168 z m 0,22.14843 0,49.30664 -27.24609,0 0,-128.49609 37.44141,0 q 26.1914,0 38.75976,9.58008 12.56836,9.49219 12.56836,28.91601 0,11.33789 -6.24023,20.21485 -6.24024,8.78906 -17.66602,13.79883 29.00391,43.33007 37.79297,55.98632 l -30.23437,0 -30.67383,-49.30664 -14.50196,0 z"
           style="font-style:normal;font-variant:normal;font-weight:bold;font-stretch:normal;font-size:180px;font-family:'open sans';-inkscape-font-specification:'open sans Bold';fill:#c87137"
           id="path3366" />
        <path
           d="m 277.32031,362.53891 q 0,14.58985 4.7461,22.06055 4.83398,7.4707 15.64453,7.4707 10.72265,0 15.38086,-7.38281 4.74609,-7.4707 4.74609,-22.14844 0,-14.58984 -4.74609,-21.88476 -4.7461,-7.29492 -15.55664,-7.29492 -10.72266,0 -15.46875,7.29492 -4.7461,7.20703 -4.7461,21.88476 z m 67.93946,0 q 0,23.99414 -12.65625,37.5293 -12.65625,13.53516 -35.24415,13.53516 -14.15039,0 -24.96093,-6.15235 -10.81055,-6.24023 -16.61133,-17.84179 -5.80078,-11.60157 -5.80078,-27.07032 0,-24.08203 12.56836,-37.4414 12.56836,-13.35938 35.33203,-13.35938 14.15039,0 24.96094,6.15235 10.81054,6.15234 16.61132,17.66601 5.80079,11.51367 5.80079,26.98242 z"
           style="font-style:normal;font-variant:normal;font-weight:bold;font-stretch:normal;font-size:180px;font-family:'open sans';-inkscape-font-specification:'open sans Bold';fill:#c87137"
           id="path3368" />
        <path
           d="m 437.01758,411.84555 -3.60352,-12.56836 -1.40625,0 q -4.30664,6.85547 -12.21679,10.63477 -7.91016,3.69141 -18.01758,3.69141 -17.31446,0 -26.10352,-9.22852 -8.78906,-9.31641 -8.78906,-26.71875 l 0,-64.07226 26.80664,0 0,57.39257 q 0,10.63477 3.7793,15.9961 3.77929,5.27343 12.04101,5.27343 11.25,0 16.25977,-7.4707 5.00976,-7.55859 5.00976,-24.96094 l 0,-46.23046 26.80664,0 0,98.26171 -20.5664,0 z"
           style="font-style:normal;font-variant:normal;font-weight:bold;font-stretch:normal;font-size:180px;font-family:'open sans';-inkscape-font-specification:'open sans Bold';fill:#c87137"
           id="path3370" />
        <path
           d="m 527.28125,392.24594 q 7.03125,0 16.875,-3.07617 l 0,19.95117 q -10.01953,4.48243 -24.60938,4.48243 -16.08398,0 -23.46679,-8.08594 -7.29492,-8.17383 -7.29492,-24.43359 l 0,-47.37305 -12.83204,0 0,-11.33789 14.76563,-8.96485 7.73437,-20.74218 17.13868,0 0,20.91797 27.50976,0 0,20.12695 -27.50976,0 0,47.37305 q 0,5.71289 3.16406,8.4375 3.25195,2.7246 8.52539,2.7246 z"
           style="font-style:normal;font-variant:normal;font-weight:bold;font-stretch:normal;font-size:180px;font-family:'open sans';-inkscape-font-specification:'open sans Bold';fill:#c87137"
           id="path3372" />
        <path
           d="m 562.78906,288.18344 q 0,-13.0957 14.58985,-13.0957 14.58984,0 14.58984,13.0957 0,6.24024 -3.69141,9.75586 -3.60351,3.42774 -10.89843,3.42774 -14.58985,0 -14.58985,-13.1836 z m 27.94922,123.66211 -26.80664,0 0,-98.26171 26.80664,0 0,98.26171 z"
           style="font-style:normal;font-variant:normal;font-weight:bold;font-stretch:normal;font-size:180px;font-family:'open sans';-inkscape-font-specification:'open sans Bold';fill:#c87137"
           id="path3374" />
        <path
           d="m 673.0918,333.71079 -23.20313,0 0,78.13476 -26.80664,0 0,-78.13476 -14.76562,0 0,-12.91992 14.76562,-7.20703 0,-7.20704 q 0,-16.78711 8.26172,-24.52148 8.26172,-7.73438 26.45508,-7.73438 13.88672,0 24.69726,4.13086 l -6.85547,19.6875 q -8.08593,-2.54882 -14.9414,-2.54882 -5.71289,0 -8.26172,3.42773 -2.54883,3.33984 -2.54883,8.61328 l 0,6.15235 23.20313,0 0,20.12695 z"
           style="font-style:normal;font-variant:normal;font-weight:bold;font-stretch:normal;font-size:180px;font-family:'open sans';-inkscape-font-specification:'open sans Bold';fill:#c87137"
           id="path3376" />
        <path
           d="m 674.32227,313.58384 29.35546,0 18.54493,55.2832 q 2.37304,7.20703 3.25195,17.05078 l 0.52734,0 q 0.9668,-9.05273 3.7793,-17.05078 l 18.19336,-55.2832 28.74023,0 -41.57226,110.83007 q -5.71289,15.38086 -16.34766,23.02735 -10.54687,7.64648 -24.69726,7.64648 -6.94336,0 -13.62305,-1.49414 l 0,-21.26953 q 4.83398,1.14258 10.54687,1.14258 7.11914,0 12.39258,-4.39453 5.36133,-4.30664 8.34961,-13.09571 l 1.58203,-4.83398 -39.02343,-97.55859 z"
           style="font-style:normal;font-variant:normal;font-weight:bold;font-stretch:normal;font-size:180px;font-family:'open sans';-inkscape-font-specification:'open sans Bold';fill:#c87137"
           id="path3378" />
      </g>
    </g>
  </g>
</svg>
